<?xml version="1.0" encoding="UTF-8"?>
<svg version="1.1" xmlns="http://www.w3.org/2000/svg" width="80" height="20">
<path d="M0 0 C26.4 0 52.8 0 80 0 C80 6.6 80 13.2 80 20 C53.6 20 27.2 20 0 20 C0 13.4 0 6.8 0 0 Z " fill="#F4EEC1" transform="translate(0,0)"/>
<path d="M0 0 C14.19 0 28.38 0 43 0 C43 1.65 43 3.3 43 5 C40.69 5 38.38 5 36 5 C36 5.66 36 6.32 36 7 C37.65 7 39.3 7 41 7 C41 7.66 41 8.32 41 9 C39.824375 9.185625 39.824375 9.185625 38.625 9.375 C35.85942178 9.79117993 35.85942178 9.79117993 34 12 C31 12.25 31 12.25 28 12 C27.34 11.34 26.68 10.68 26 10 C26.375 7.375 26.375 7.375 27 5 C30.28696233 4.20046862 31.71023192 3.90341064 35 5 C35 4.34 35 3.68 35 3 C33.54257537 2.91903197 32.08387193 2.86082226 30.625 2.8125 C29.40683594 2.76029297 29.40683594 2.76029297 28.1640625 2.70703125 C27.44992188 2.80371094 26.73578125 2.90039062 26 3 C23.66703749 5.82717213 23.66703749 5.82717213 24.25 9.0625 C24.7593244 12.099459 24.7593244 12.099459 27 14 C29.22128555 14.02308597 29.22128555 14.02308597 31.625 13.625 C32.44226562 13.51414062 33.25953125 13.40328125 34.1015625 13.2890625 C34.72804687 13.19367187 35.35453125 13.09828125 36 13 C36 16 36 16 34 20 C22.78 20 11.56 20 0 20 C0 13.4 0 6.8 0 0 Z " fill="#F2F6F8" transform="translate(0,0)"/>
<path d="M0 0 C1.89510699 -0.08160748 3.79124504 -0.13946459 5.6875 -0.1875 C6.74324219 -0.22230469 7.79898437 -0.25710937 8.88671875 -0.29296875 C12.41836599 0.03936945 14.18255429 0.88321504 17 3 C19.46480098 6.69720147 19.7842673 9.71155966 19 14 C16.97047452 17.14249107 15.53044369 18.63745366 11.83984375 19.51171875 C7.53442833 19.83516398 5.50399204 19.35999431 1.9375 16.8125 C-1.46182674 12.00454813 -0.37277948 5.58340819 0 0 Z " fill="#828C98" transform="translate(0,0)"/>
<path d="M0 0 C4.29 0 8.58 0 13 0 C13 3.63 13 7.26 13 11 C14.32 11.33 15.64 11.66 17 12 C15.02 12 13.04 12 11 12 C11 8.7 11 5.4 11 2 C10.01 2 9.02 2 8 2 C7.67 2.99 7.34 3.98 7 5 C5.35 5 3.7 5 2 5 C2 8.3 2 11.6 2 15 C2.66 15 3.32 15 4 15 C4 16.65 4 18.3 4 20 C-0.29 20 -4.58 20 -9 20 C-9 18.35 -9 16.7 -9 15 C-8.34 14.67 -7.68 14.34 -7 14 C-7.90492187 14.19529297 -7.90492187 14.19529297 -8.828125 14.39453125 C-11.28348857 14.81827948 -13.50807622 15.09419643 -16 15 C-18.625 12.9375 -18.625 12.9375 -20 10 C-19.85384044 6.27293127 -19.65788293 4.65788293 -17 2 C-10.67741935 1.66129032 -10.67741935 1.66129032 -8 3 C-8 3.66 -8 4.32 -8 5 C-10.31 5 -12.62 5 -15 5 C-15.33 6.65 -15.66 8.3 -16 10 C-12.06876267 11.09201037 -10.53461651 10.87776502 -7 9 C-4.25 8.875 -4.25 8.875 -2 9 C-2 8.34 -2 7.68 -2 7 C-3.65 7 -5.3 7 -7 7 C-7 6.34 -7 5.68 -7 5 C-4.69 5 -2.38 5 0 5 C0 3.35 0 1.7 0 0 Z " fill="#F7F8E7" transform="translate(43,0)"/>
<path d="M0 0 C1.00023193 0.00523682 2.00046387 0.01047363 3.03100586 0.01586914 C4.1105957 0.0190918 5.19018555 0.02231445 6.30249023 0.02563477 C8.00695312 0.03820313 8.00695312 0.03820313 9.74584961 0.05102539 C11.45611328 0.05779297 11.45611328 0.05779297 13.20092773 0.06469727 C16.02842379 0.07652779 18.85589306 0.09446389 21.68334961 0.11352539 C21.68334961 4.07352539 21.68334961 8.03352539 21.68334961 12.11352539 C19.70334961 12.11352539 17.72334961 12.11352539 15.68334961 12.11352539 C15.68334961 10.46352539 15.68334961 8.81352539 15.68334961 7.11352539 C16.67334961 7.11352539 17.66334961 7.11352539 18.68334961 7.11352539 C18.68334961 6.45352539 18.68334961 5.79352539 18.68334961 5.11352539 C17.69334961 5.11352539 16.70334961 5.11352539 15.68334961 5.11352539 C15.68334961 4.45352539 15.68334961 3.79352539 15.68334961 3.11352539 C15.02334961 3.11352539 14.36334961 3.11352539 13.68334961 3.11352539 C13.68334961 3.77352539 13.68334961 4.43352539 13.68334961 5.11352539 C13.02334961 5.11352539 12.36334961 5.11352539 11.68334961 5.11352539 C11.35334961 5.77352539 11.02334961 6.43352539 10.68334961 7.11352539 C10.35334961 6.78352539 10.02334961 6.45352539 9.68334961 6.11352539 C7.68376597 6.07271756 5.68289707 6.07098183 3.68334961 6.11352539 C3.02334961 7.76352539 2.36334961 9.41352539 1.68334961 11.11352539 C0.36334961 11.11352539 -0.95665039 11.11352539 -2.31665039 11.11352539 C-2.51071517 9.46845321 -2.69672974 7.82242945 -2.87915039 6.17602539 C-2.98356445 5.25950195 -3.08797852 4.34297852 -3.19555664 3.39868164 C-3.23551758 2.64458008 -3.27547852 1.89047852 -3.31665039 1.11352539 C-2.31665039 0.11352539 -2.31665039 0.11352539 0 0 Z " fill="#F5F8F9" transform="translate(58.316650390625,-0.113525390625)"/>
<path d="M0 0 C0.99 0 1.98 0 3 0 C3 3.3 3 6.6 3 10 C4.98 10 6.96 10 9 10 C9 10.66 9 11.32 9 12 C5.37 12.33 1.74 12.66 -2 13 C-2 13.66 -2 14.32 -2 15 C-0.329375 14.7215625 -0.329375 14.7215625 1.375 14.4375 C5 14 5 14 7 15 C7 15.99 7 16.98 7 18 C3.37 18 -0.26 18 -4 18 C-4 16.35 -4 14.7 -4 13 C-4.66 13 -5.32 13 -6 13 C-6 9.7 -6 6.4 -6 3 C-5.195625 2.87625 -4.39125 2.7525 -3.5625 2.625 C-2.716875 2.41875 -1.87125 2.2125 -1 2 C-0.67 1.34 -0.34 0.68 0 0 Z " fill="#EDEBD6" transform="translate(51,2)"/>
<path d="M0 0 C3.5 0.1875 3.5 0.1875 5.5 1.1875 C5.5 1.8475 5.5 2.5075 5.5 3.1875 C3.19 3.1875 0.88 3.1875 -1.5 3.1875 C-1.83 4.8375 -2.16 6.4875 -2.5 8.1875 C1.43123733 9.27951037 2.96538349 9.06526502 6.5 7.1875 C9.25 7.0625 9.25 7.0625 11.5 7.1875 C11.5 6.5275 11.5 5.8675 11.5 5.1875 C9.85 5.1875 8.2 5.1875 6.5 5.1875 C6.5 4.5275 6.5 3.8675 6.5 3.1875 C8.83294775 3.14508277 11.16702567 3.14657063 13.5 3.1875 C14.5 4.1875 14.5 4.1875 14.59765625 6.03515625 C14.56510417 8.0859375 14.53255208 10.13671875 14.5 12.1875 C13.85933594 12.17589844 13.21867187 12.16429687 12.55859375 12.15234375 C8.39330156 12.10889063 4.72552487 12.14021253 0.625 13 C-2.5 13.1875 -2.5 13.1875 -5 11.125 C-6.82497386 7.55109285 -6.67790563 5.97362525 -5.5 2.1875 C-3.5 0.1875 -3.5 0.1875 0 0 Z " fill="#30456D" transform="translate(29.5,1.8125)"/>
<path d="M0 0 C-0.350625 0.721875 -0.70125 1.44375 -1.0625 2.1875 C-2.10409017 5.3122705 -1.89096572 6.88161996 -1 10 C0.65 10.33 2.3 10.66 4 11 C2.68 10.67 1.36 10.34 0 10 C-0.33 8.35 -0.66 6.7 -1 5 C-0.34 5 0.32 5 1 5 C1 5.99 1 6.98 1 8 C1.33 7.01 1.66 6.02 2 5 C3.32 5 4.64 5 6 5 C6.33 3.68 6.66 2.36 7 1 C9 3 9 3 9.3125 6.375 C9 10 9 10 8 12.4375 C5.40069564 14.46820653 3.18669274 14.5621101 -0.05859375 14.3828125 C-2 14 -2 14 -4.5 12.375 C-6.44280469 9.29889257 -6.52224493 7.58110811 -6 4 C-3.78947368 0 -3.78947368 0 0 0 Z " fill="#F3F6F2" transform="translate(8,3)"/>
<path d="M0 0 C7.9909291 0.18782098 7.9909291 0.18782098 11.5625 3.0625 C13.42954025 6.87775616 13.94025874 9.83599701 13 14 C11.0625 17 11.0625 17 8 19 C4.87043572 19.62925403 2.12862951 19.6350477 -1 19 C-3.625 17.25 -3.625 17.25 -5 15 C-4.75 12.75 -4.75 12.75 -4 11 C-3.71125 11.639375 -3.4225 12.27875 -3.125 12.9375 C-2.17176549 15.15206079 -2.17176549 15.15206079 0 16 C1.9129402 16.23434712 1.9129402 16.23434712 4 16.25 C4.70125 16.27578125 5.4025 16.3015625 6.125 16.328125 C6.74375 16.21984375 7.3625 16.1115625 8 16 C10.46943529 12.29584707 10.46913089 10.37855495 10 6 C7.22106468 2.79353617 4.09635593 2.46549499 0 2 C0 1.34 0 0.68 0 0 Z " fill="#445463" transform="translate(6,0)"/>
<path d="M0 0 C3 0.25 3 0.25 5 2.25 C5.1875 5.3125 5.1875 5.3125 5 8.25 C4 9.25 4 9.25 0.5625 9.4375 C-3 9.25 -3 9.25 -5 7.25 C-5.25 4.75 -5.25 4.75 -5 2.25 C-3 0.25 -3 0.25 0 0 Z " fill="#283D61" transform="translate(65,4.75)"/>
<path d="M0 0 C2.69082872 0.17635452 5.32851446 0.61835921 8 1 C8 1.66 8 2.32 8 3 C9.65 3 11.3 3 13 3 C13 3.66 13 4.32 13 5 C12.21625 5.12375 11.4325 5.2475 10.625 5.375 C7.85942178 5.79117993 7.85942178 5.79117993 6 8 C3 8.25 3 8.25 0 8 C-0.66 7.34 -1.32 6.68 -2 6 C-1.44444444 1.44444444 -1.44444444 1.44444444 0 0 Z " fill="#E4ECF4" transform="translate(28,4)"/>
<path d="M0 0 C1.98 0 3.96 0 6 0 C6 3.96 6 7.92 6 12 C4.02 12 2.04 12 0 12 C0 10.35 0 8.7 0 7 C0.99 7 1.98 7 3 7 C3 6.34 3 5.68 3 5 C2.01 5 1.02 5 0 5 C0 4.34 0 3.68 0 3 C-0.66 3 -1.32 3 -2 3 C-2.33 3.66 -2.66 4.32 -3 5 C-3 4.01 -3 3.02 -3 2 C-2.01 2 -1.02 2 0 2 C0 1.34 0 0.68 0 0 Z " fill="#EAEEF3" transform="translate(74,0)"/>
<path d="M0 0 C2.33294775 -0.04241723 4.66702567 -0.04092937 7 0 C8 1 8 1 8.09765625 2.84765625 C8.04882812 5.92382812 8.04882812 5.92382812 8 9 C5.36 9 2.72 9 0 9 C0 7.35 0 5.7 0 4 C1.65 4 3.3 4 5 4 C5 3.34 5 2.68 5 2 C3.35 2 1.7 2 0 2 C0 1.34 0 0.68 0 0 Z " fill="#1A2E58" transform="translate(36,5)"/>
<path d="M0 0 C0.66 1.98 1.32 3.96 2 6 C-1.96 6 -5.92 6 -10 6 C-10 4.35 -10 2.7 -10 1 C-6.52674819 -0.1577506 -3.63932552 -0.06866652 0 0 Z " fill="#ECEBD6" transform="translate(44,14)"/>
<path d="M0 0 C0.66 0 1.32 0 2 0 C2 0.66 2 1.32 2 2 C2.99 2 3.98 2 5 2 C5 2.66 5 3.32 5 4 C4.01 4 3.02 4 2 4 C2 5.65 2 7.3 2 9 C3.98 9 5.96 9 8 9 C8 9.66 8 10.32 8 11 C5.6739143 11.38063221 3.33944736 11.71269945 1 12 C0 11 0 11 -0.0625 7.4375 C-0.041875 6.303125 -0.02125 5.16875 0 4 C-0.66 4 -1.32 4 -2 4 C-2 3.34 -2 2.68 -2 2 C-1.34 2 -0.68 2 0 2 C0 1.34 0 0.68 0 0 Z " fill="#3D4F72" transform="translate(72,3)"/>
<path d="M0 0 C2.01822917 0.06510417 4.03645833 0.13020833 6.0546875 0.1953125 C6.0546875 2.1753125 6.0546875 4.1553125 6.0546875 6.1953125 C3.4146875 6.1953125 0.7746875 6.1953125 -1.9453125 6.1953125 C-1.9453125 5.2053125 -1.9453125 4.2153125 -1.9453125 3.1953125 C-2.6053125 2.8653125 -3.2653125 2.5353125 -3.9453125 2.1953125 C-1.9453125 0.1953125 -1.9453125 0.1953125 0 0 Z " fill="#FBFDFB" transform="translate(73.9453125,13.8046875)"/>
<path d="M0 0 C0.66 0 1.32 0 2 0 C2 4.33333333 2 8.66666667 2 13 C0.68 13 -0.64 13 -2 13 C-2.33 12.01 -2.66 11.02 -3 10 C-4.99665314 8.31461399 -4.99665314 8.31461399 -7 7 C-5.02 6.67 -3.04 6.34 -1 6 C-0.67 4.02 -0.34 2.04 0 0 Z " fill="#D3D9DD" transform="translate(70,7)"/>
<path d="M0 0 C1.98 0 3.96 0 6 0 C6.33 0.99 6.66 1.98 7 3 C6.38125 3.53625 5.7625 4.0725 5.125 4.625 C2.7217098 7.31103023 1.93977847 9.55414562 1 13 C0.67 13 0.34 13 0 13 C0 8.71 0 4.42 0 0 Z " fill="#4C5B6C" transform="translate(0,0)"/>
<path d="M0 0 C-0.350625 0.70125 -0.70125 1.4025 -1.0625 2.125 C-2.1639193 5.50268586 -1.79516141 7.58080593 -1 11 C-1.99 11.66 -2.98 12.32 -4 13 C-6.32579101 9.51131349 -6.41865457 8.10281481 -6 4 C-3.78947368 0 -3.78947368 0 0 0 Z " fill="#E3EBF1" transform="translate(8,3)"/>
<path d="M0 0 C2.875 -0.125 2.875 -0.125 6 0 C8 2 8 2 8.1875 5.0625 C8 8 8 8 7 9 C5.00041636 9.04080783 2.99954746 9.04254356 1 9 C1.33 8.01 1.66 7.02 2 6 C2.99 6 3.98 6 5 6 C5 5.01 5 4.02 5 3 C2.525 2.01 2.525 2.01 0 1 C0 0.67 0 0.34 0 0 Z " fill="#1D325E" transform="translate(62,5)"/>
<path d="M0 0 C1.98 0 3.96 0 6 0 C6 0.66 6 1.32 6 2 C5.01 2.495 5.01 2.495 4 3 C3.59270772 5.32156597 3.25561323 7.6568787 3 10 C2.01 10 1.02 10 0 10 C0 6.7 0 3.4 0 0 Z " fill="#2C4065" transform="translate(45,5)"/>
<path d="M0 0 C0.66 0 1.32 0 2 0 C2 3.3 2 6.6 2 10 C3.98 10 5.96 10 8 10 C8 10.66 8 11.32 8 12 C5.36 12 2.72 12 0 12 C0 8.04 0 4.08 0 0 Z " fill="#F1C831" transform="translate(52,2)"/>
<path d="M0 0 C0.89847656 0.07863281 1.79695313 0.15726563 2.72265625 0.23828125 C3.81900391 0.46064453 3.81900391 0.46064453 4.9375 0.6875 C5.2675 1.3475 5.5975 2.0075 5.9375 2.6875 C5.6075 3.6775 5.2775 4.6675 4.9375 5.6875 C3.9475 5.6875 2.9575 5.6875 1.9375 5.6875 C1.9375 4.6975 1.9375 3.7075 1.9375 2.6875 C0.2875 2.3575 -1.3625 2.0275 -3.0625 1.6875 C-3.3925 2.3475 -3.7225 3.0075 -4.0625 3.6875 C-5.0525 3.3575 -6.0425 3.0275 -7.0625 2.6875 C-7.0625 2.0275 -7.0625 1.3675 -7.0625 0.6875 C-4.47149174 -0.60800413 -2.86825631 -0.27650816 0 0 Z " fill="#FBFDF0" transform="translate(56.0625,14.3125)"/>
<path d="M0 0 C3.5 0.1875 3.5 0.1875 5.5 1.1875 C5.5 1.8475 5.5 2.5075 5.5 3.1875 C4.4275 3.105 3.355 3.0225 2.25 2.9375 C-1.54009265 2.82512783 -1.54009265 2.82512783 -3.9375 5.1875 C-4.453125 5.8475 -4.96875 6.5075 -5.5 7.1875 C-5.625 4.8125 -5.625 4.8125 -5.5 2.1875 C-3.5 0.1875 -3.5 0.1875 0 0 Z " fill="#1E3460" transform="translate(29.5,1.8125)"/>
<path d="M0 0 C1.65 0.33 3.3 0.66 5 1 C5 1.99 5 2.98 5 4 C1.37 4 -2.26 4 -6 4 C-5.67 3.01 -5.34 2.02 -5 1 C-3.35 1.33 -1.7 1.66 0 2 C0 1.34 0 0.68 0 0 Z " fill="#C4CAD5" transform="translate(53,16)"/>
<path d="M0 0 C0.680625 0.804375 1.36125 1.60875 2.0625 2.4375 C5.48477302 5.42288711 7.5428126 5.73781251 12 6 C12 6.33 12 6.66 12 7 C8.04 7 4.08 7 0 7 C0 4.69 0 2.38 0 0 Z " fill="#D9E0E5" transform="translate(0,13)"/>
<path d="M0 0 C0.33 0 0.66 0 1 0 C1 2.64 1 5.28 1 8 C-1.97 7.505 -1.97 7.505 -5 7 C-5 6.01 -5 5.02 -5 4 C-4.01 4 -3.02 4 -2 4 C-2 4.66 -2 5.32 -2 6 C-1.34 6 -0.68 6 0 6 C0 4.02 0 2.04 0 0 Z " fill="#5A7299" transform="translate(43,6)"/>
<path d="M0 0 C0.70125 0.78375 1.4025 1.5675 2.125 2.375 C5.09157086 5.08360818 7.1582516 6.01722715 11 7 C11 7.33 11 7.66 11 8 C4.67741935 8.48635236 4.67741935 8.48635236 1.5625 6.25 C0 4 0 4 0 0 Z " fill="#384555" transform="translate(1,11)"/>
<path d="M0 0 C1.98 0.495 1.98 0.495 4 1 C3.67 2.32 3.34 3.64 3 5 C1.68 4.67 0.36 4.34 -1 4 C-0.67 2.68 -0.34 1.36 0 0 Z " fill="#E0EEF6" transform="translate(64,7)"/>
<path d="M0 0 C0.33 0.66 0.66 1.32 1 2 C1.99 2 2.98 2 4 2 C4 2.66 4 3.32 4 4 C3.01 4 2.02 4 1 4 C1 4.66 1 5.32 1 6 C2.32 6.33 3.64 6.66 5 7 C3.35 7 1.7 7 0 7 C-0.66 5.02 -1.32 3.04 -2 1 C-1.34 0.67 -0.68 0.34 0 0 Z " fill="#BFB470" transform="translate(9,4)"/>
<path d="M0 0 C0.66 0.99 1.32 1.98 2 3 C0.4375 4.5625 0.4375 4.5625 -2 6 C-5.75 5.6875 -5.75 5.6875 -9 5 C-9 4.67 -9 4.34 -9 4 C-7.88625 3.896875 -6.7725 3.79375 -5.625 3.6875 C-4.42875 3.460625 -3.2325 3.23375 -2 3 C-1.34 2.01 -0.68 1.02 0 0 Z " fill="#5F6B7A" transform="translate(16,13)"/>
<path d="M0 0 C0.66 0 1.32 0 2 0 C2 0.99 2 1.98 2 3 C3.65 3 5.3 3 7 3 C6.67 3.99 6.34 4.98 6 6 C4.02 5.34 2.04 4.68 0 4 C0 2.68 0 1.36 0 0 Z " fill="#D1D7C0" transform="translate(7,8)"/>
<path d="M0 0 C0.99 0.33 1.98 0.66 3 1 C4.1875 3.5625 4.1875 3.5625 5 6 C4.34 6.66 3.68 7.32 3 8 C0.37613513 4.93882432 0 4.26826873 0 0 Z " fill="#294068" transform="translate(23,6)"/>
<path d="M0 0 C0.66 0 1.32 0 2 0 C2 0.66 2 1.32 2 2 C2.99 2 3.98 2 5 2 C5 2.66 5 3.32 5 4 C3.68 4.33 2.36 4.66 1 5 C1 4.34 1 3.68 1 3 C0.01 3.33 -0.98 3.66 -2 4 C-2 3.34 -2 2.68 -2 2 C-1.34 2 -0.68 2 0 2 C0 1.34 0 0.68 0 0 Z " fill="#1B345B" transform="translate(72,3)"/>
<path d="M0 0 C1.98 0 3.96 0 6 0 C4.35830472 2.02054804 2.69088222 4.02043058 1 6 C0.67 6 0.34 6 0 6 C0 4.02 0 2.04 0 0 Z " fill="#F6FBFA" transform="translate(0,0)"/>
</svg>
